<svg width="18" height="17" viewBox="0 0 18 17" fill="none" xmlns="http://www.w3.org/2000/svg">
<path d="M13.3664 0C11.4764 0 10.6776 0.901875 9.36135 0.901875C8.01182 0.901875 6.98245 0.00656247 5.34464 0.00656247C3.74151 0.00656247 2.03198 0.985312 0.946355 2.65266C-0.57802 5.00391 -0.31927 9.43219 2.14964 13.2047C3.03276 14.5552 4.21214 16.0697 5.75901 16.0861H5.78714C7.13151 16.0861 7.53089 15.2058 9.38104 15.1955H9.40917C11.2317 15.1955 11.5973 16.0809 12.936 16.0809H12.9642C14.511 16.0645 15.7537 14.3864 16.6368 13.0411C17.2724 12.0736 17.5087 11.588 17.9962 10.4934C14.4248 9.13781 13.851 4.07484 17.3831 2.13375C16.305 0.78375 14.7899 0.00187469 13.3617 0.00187469L13.3664 0Z" fill="white"/>
</svg>
