<svg viewBox="0 0 220 181.7094" x="0" y="0" fill="none" xmlns="http://www.w3.org/2000/svg"><path id="path_2" d="M99.71,-36.7725c-48.923,4.6885 -4.992,77.8776 -4.992,77.8776c0,0 -97.646,-69.849 -94.65,29.9066c2.995,99.7553 91.854,22.6809 91.854,22.6809c0,0 -76.479,70.2504 0,86.3074c76.479,16.057 41.734,-86.3074 41.734,-86.3074c0,0 46.127,86.3074 90.856,26.0934c44.73,-60.215 -68.092,-58.6093 -68.092,-58.6093c0,0 111.033,-3.2115 62.302,-68.64472c-48.732,-65.43328 -85.066,35.32592 -85.066,35.32592c0,0 14.976,-69.3188 -33.946,-64.6304z" fill="currentColor" xmlns="http://www.w3.org/2000/svg"/></svg>