<svg width="100" height="83" viewBox="0 0 100 83" fill="none" xmlns="http://www.w3.org/2000/svg">
<path d="M2.68825 71.9468C8.26455 70.6452 12.8783 66.8183 16.9974 62.8897C17.0249 62.8646 17.0572 62.8456 17.0924 62.8337C17.1276 62.8218 17.1649 62.8173 17.2019 62.8206C17.2389 62.8238 17.2749 62.8346 17.3075 62.8524C17.3401 62.8703 17.3686 62.8946 17.3914 62.924C17.4576 63.0112 17.494 63.1173 17.4953 63.2268C17.4965 63.3363 17.4625 63.4432 17.3982 63.5319C14.6992 67.2889 11.2646 70.458 7.30312 72.8467C31.0682 70.2738 60.4947 59.9136 66.6617 34.0657C59.9055 35.7528 52.5216 36.4499 45.9113 33.6857C42.0261 32.2076 38.682 29.5835 36.3225 26.1612C30.5217 17.834 33.2545 5.56502 42.5915 1.59427C59.5357 -5.61136 74.2387 12.9477 72.4775 30.4167C81.8716 27.6207 90.9111 23.5747 99.5214 18.891C99.5677 18.8649 99.6223 18.8581 99.6735 18.8719C99.7247 18.8856 99.7685 18.919 99.7955 18.9647C99.818 19.0015 99.8331 19.0423 99.8399 19.085C99.8466 19.1276 99.8449 19.1711 99.8349 19.2131C99.8248 19.2551 99.8065 19.2946 99.7812 19.3295C99.7558 19.3644 99.7238 19.394 99.687 19.4165C91.0497 24.6998 81.934 29.2294 72.3082 32.446C68.5652 61.6993 35.3186 75.2697 9.22021 74.0954C13.2277 74.2773 17.3104 78.9307 18.4485 81.799C18.4928 81.8886 18.5004 81.9918 18.4698 82.0869C18.4393 82.182 18.3729 82.2615 18.2847 82.3084C18.201 82.345 18.109 82.358 18.0185 82.3462C17.9279 82.3344 17.8423 82.2982 17.7708 82.2414C13.3726 78.7611 8.63346 76.8325 2.46854 75.2912C-0.060568 74.6582 -1.59616 72.9483 2.68825 71.9468ZM67.3112 25.9639C67.3105 13.2963 54.453 -0.239132 43.5615 5.41013C37.2483 8.68159 34.8369 16.6185 38.1585 22.9067C40.0955 26.5571 43.239 29.4223 47.0528 31.0135C53.3245 33.811 60.4845 33.2125 67.0729 31.8012C67.338 29.8675 67.4178 27.9128 67.3112 25.9639Z" fill="#99B9FF"/>
</svg>
