<svg viewBox="0 0 296.5058 212.5005" x="0" y="0" fill="none" xmlns="http://www.w3.org/2000/svg"><path id="path_3" opacity="0.2" d="M129.296,236.8465c-28.615,13.55 -4.921,79.616 -33.6357,75.576c-34.6674,-4.877 24.1597,-65.404 -0.9912,-89.775c-26.9357,-26.1 -83.6059,43.118 -95.57705,9.254c-11.79835,-33.375 70.08656,-13.821 76.45276,-48.661c7.1914,-39.358 -93.6553,-37.219 -73.13629,-71.56c20.83799,-34.875 60.47049,57.662 96.38199,38.733c34.5775,-18.227 -12.9629,-98.837 26.0405,-96.734c34.471,1.859 -16.248,83.402 18.53,108.732c34.011,24.77 92.86,-52.887 106.93,-13.195c14.117,39.824 -88.226,14.12 -92.429,56.183c-3.308,33.117 68.636,39.495 49.569,66.769c-20.294,29.031 -46.146,-50.47 -78.135,-35.322z" stroke="#E09800" stroke-width="13.021" xmlns="http://www.w3.org/2000/svg"/></svg>