<svg width="220" height="182" viewBox="0 0 220 182" fill="none" xmlns="http://www.w3.org/2000/svg">
<path d="M99.7098 -36.7725C50.7873 -32.084 94.7177 41.1051 94.7177 41.1051C94.7177 41.1051 -2.92764 -28.7439 0.0675225 71.0117C3.06269 170.767 91.9222 93.6926 91.9222 93.6926C91.9222 93.6926 15.4431 163.943 91.9222 180C168.401 196.057 133.656 93.6926 133.656 93.6926C133.656 93.6926 179.783 180 224.512 119.786C269.242 59.571 156.42 61.1767 156.42 61.1767C156.42 61.1767 267.453 57.9652 218.722 -7.46802C169.99 -72.9013 133.656 27.8579 133.656 27.8579C133.656 27.8579 148.632 -41.4609 99.7098 -36.7725Z" fill="#3474FF"/>
</svg>
