<svg viewBox="0 0 172.6739 220.9257" x="0" y="0" fill="none" xmlns="http://www.w3.org/2000/svg"><path id="path_4" d="M80.5789,132.4306c0.553,-8.912 10.407,-24.744 26.316,-22.547M150.8539,72.5166c-9.629,-1.092 -22.65,8.069 -22.613,20.975M105.3609,149.6186c30.101,25.664 79.234,-19.957 56.775,-52.041c0,0 -9.336,12.663 -24.731,26.774c-15.394,14.11 -32.044,25.267 -32.044,25.267zM178.8209,70.0716c26.042,40.68 7.772,88.818 -30.544,109.548c-38.317,20.729 -76.342,12.121 -102.731,-24.217c-26.388,-36.339 -12.137,-88.875 22.645,-111.144c34.782,-22.27 84.589,-14.867 110.63,25.813z" stroke="#893DED" stroke-width="7.86849" xmlns="http://www.w3.org/2000/svg"/></svg>