<svg viewBox="0 0 25.4538 30.5295" x="0" y="0" fill="none" xmlns="http://www.w3.org/2000/svg"><path id="path" d="M12.5339,7.1279l-1.232,-6.401M14.7419,5.4319l0.796,-3.214M14.7419,21.4989l1.694,8.304M12.5339,24.0439l-0.539,3.471M19.8239,11.3879l4.903,-2.563M6.2709,11.3879l-5.544,-3.488M3.8589,12.6809h-2.619M7.5029,19.0819l-4.748,3.985M20.3629,17.8079l3.774,1.919M13.2599,11.3879l3.97,-3.488l-1.184,5.442l4.805,1.361l-4.805,1.361l1.184,3.663l-3.587,-1.919l-3.482,4.745l0.418,-5.652l-6.72,-1.186l5.698,-2.373l-1.102,-5.163z" stroke="#E09800" stroke-width="1.45379" xmlns="http://www.w3.org/2000/svg"/></svg>