<svg width="58" height="60" viewBox="0 0 58 60" fill="none" xmlns="http://www.w3.org/2000/svg">
<rect x="0.75" y="0.75" width="56.5" height="57.9" rx="28.25" stroke="#3574FF" stroke-width="1.5" stroke-dasharray="8 8"/>
<path d="M38 29.7C38 29.8989 37.921 30.0896 37.7803 30.2303C37.6397 30.3709 37.4489 30.45 37.25 30.45H29.75V37.95C29.75 38.1489 29.671 38.3396 29.5303 38.4803C29.3897 38.6209 29.1989 38.7 29 38.7C28.8011 38.7 28.6103 38.6209 28.4697 38.4803C28.329 38.3396 28.25 38.1489 28.25 37.95V30.45H20.75C20.5511 30.45 20.3603 30.3709 20.2197 30.2303C20.079 30.0896 20 29.8989 20 29.7C20 29.501 20.079 29.3103 20.2197 29.1696C20.3603 29.029 20.5511 28.95 20.75 28.95H28.25V21.45C28.25 21.251 28.329 21.0603 28.4697 20.9196C28.6103 20.779 28.8011 20.7 29 20.7C29.1989 20.7 29.3897 20.779 29.5303 20.9196C29.671 21.0603 29.75 21.251 29.75 21.45V28.95H37.25C37.4489 28.95 37.6397 29.029 37.7803 29.1696C37.921 29.3103 38 29.501 38 29.7Z" fill="#3574FF"/>
</svg>
